<svg xmlns="http://www.w3.org/2000/svg" viewBox="0 0 400 600">
  <rect width="100%" height="100%" fill="#0b0a0d"/>
  <rect x="14" y="14" width="372" height="572" rx="24" fill="#131112" stroke="#343038" stroke-width="16"/>
  <defs>
    <linearGradient id="bg2" x1="0" y1="0" x2="0" y2="1">
      <stop offset="0%" stop-color="#243129"/>
      <stop offset="100%" stop-color="#0f100e"/>
    </linearGradient>
  </defs>
  <rect x="34" y="38" width="332" height="342" rx="18" fill="url(#bg2)" stroke="#2f2a32" stroke-width="6"/>
  <circle cx="200" cy="132" r="56" fill="#283a31" stroke="#7b6e47" stroke-width="8"/>
  <circle cx="190" cy="124" r="16" fill="#d4c38d"/>
  <circle cx="210" cy="124" r="16" fill="#d4c38d"/>
  <path d="M150 156 q24 26 100 0" stroke="#7e8f5f" stroke-width="10" fill="none"/>
  <path d="M170 168 c16 18 52 18 72 0" stroke="#aac08b" stroke-width="8" fill="none"/>
  <path d="M126 214 q60 40 148 0" fill="#1d2620"/>
  <path d="M122 240 l-26 70 q6 16 18 12 l24 -62" fill="#242823"/>
  <path d="M278 240 l26 70 q-6 16 -18 12 l-24 -62" fill="#242823"/>
  <path d="M150 294 q80 30 100 0" fill="#2d332b"/>
  <path d="M88 100 q40 -22 64 0" stroke="#a1b37b" stroke-width="8" fill="none"/>
  <path d="M122 186 c-20 18 -24 40 -20 64" fill="none" stroke="#6e8d6a" stroke-width="10"/>
  <path d="M278 186 c20 18 24 40 20 64" fill="none" stroke="#6e8d6a" stroke-width="10"/>
  <text x="200" y="500" text-anchor="middle" font-family="Georgia, serif" font-size="28" fill="#d9b26b">Campaign</text>
  <text x="200" y="532" text-anchor="middle" font-family="Georgia, serif" font-size="14" fill="#bfbfbf">Hub</text>
</svg>